<?xml version="1.0" encoding="utf-8"?>
<!-- Generator: Adobe Illustrator 23.0.3, SVG Export Plug-In . SVG Version: 6.00 Build 0)  -->
<svg version="1.1" id="Layer_1" xmlns="http://www.w3.org/2000/svg" xmlns:xlink="http://www.w3.org/1999/xlink" x="0px" y="0px"
	 viewBox="0 0 70 70" style="enable-background:new 0 0 70 70;" xml:space="preserve">
<style type="text/css">
	.st0{fill-rule:evenodd;clip-rule:evenodd;fill:#DFEDFF;}
	.st1{fill-rule:evenodd;clip-rule:evenodd;fill:#0F7BFF;}
</style>
<path class="st0" d="M35,0c19.3,0,35,15.7,35,35S54.3,70,35,70S0,54.3,0,35S15.7,0,35,0z"/>
<path class="st1" d="M49.2,51H26.9c-1,0-1.8-0.8-1.8-1.8V44c0-0.3,0.3-0.6,0.6-0.6c0.3,0,0.6,0.3,0.6,0.6v5.2c0,0.3,0.3,0.6,0.6,0.6
	h22.3c0.3,0,0.6-0.3,0.6-0.6V26.7h-3.7c-1,0-1.8-0.8-1.8-1.8v-3.7H26.9c-0.3,0-0.6,0.3-0.6,0.6v0.8c0.5-0.1,1.1-0.2,1.7-0.2
	c0.3,0,0.6,0.3,0.6,0.6v7.4c0,0.3-0.3,0.6-0.6,0.6h-7.4c-0.3,0-0.6-0.3-0.6-0.6c0-3.4,2.1-6.3,5.1-7.5v-1.2c0-1,0.8-1.8,1.8-1.8h18
	c0.2,0,0.3,0.1,0.4,0.2l5.5,5.5c0.1,0.1,0.2,0.3,0.2,0.4v23.1C51,50.2,50.2,51,49.2,51z M21.2,29.8h6.2v-6.2
	C24.1,23.9,21.5,26.6,21.2,29.8z M45.5,22.1v2.8c0,0.3,0.3,0.6,0.6,0.6h2.8L45.5,22.1z M46.7,34.4c0.1,0.1,0.2,0.3,0.2,0.4
	c0,0.2-0.1,0.3-0.2,0.4c-0.1,0.1-0.3,0.2-0.4,0.2s-0.3-0.1-0.4-0.2c-0.1-0.1-0.2-0.3-0.2-0.4c0-0.2,0.1-0.3,0.2-0.4
	c0.1-0.1,0.3-0.2,0.4-0.2C46.4,34.2,46.6,34.3,46.7,34.4z M40.3,34.2h3.2c0.3,0,0.6,0.3,0.6,0.6c0,0.3-0.3,0.6-0.6,0.6h-3.2
	c-0.3,0-0.6-0.3-0.6-0.6C39.7,34.5,40,34.2,40.3,34.2z M47.7,29.6h-7.4c-0.3,0-0.6-0.3-0.6-0.6c0-0.3,0.3-0.6,0.6-0.6h7.4
	c0.3,0,0.6,0.3,0.6,0.6C48.3,29.4,48,29.6,47.7,29.6z M47.7,32.5h-7.4c-0.3,0-0.6-0.3-0.6-0.6c0-0.3,0.3-0.6,0.6-0.6h7.4
	c0.3,0,0.6,0.3,0.6,0.6C48.3,32.3,48,32.5,47.7,32.5z M31.1,48.6c-1,0-1.8-0.8-1.8-1.8c0-1,0.8-1.8,1.8-1.8c0.3,0,0.5,0.1,0.8,0.2
	l2.2-2.2C34,42.7,34,42.4,34,42.1c0-1,0.8-1.8,1.8-1.8c1,0,1.8,0.8,1.8,1.8c0,0.2,0,0.5-0.1,0.7l2.3,2.3c0.2-0.1,0.5-0.2,0.8-0.2
	c0.3,0,0.6,0.1,0.8,0.2l3.5-3.5c-0.1-0.2-0.1-0.5-0.1-0.7c0-1,0.8-1.8,1.8-1.8c1,0,1.8,0.8,1.8,1.8c0,1-0.8,1.8-1.8,1.8
	c-0.3,0-0.6-0.1-0.9-0.2L42.2,46c0.1,0.2,0.2,0.5,0.2,0.8c0,1-0.8,1.8-1.8,1.8s-1.8-0.8-1.8-1.8c0-0.3,0.1-0.6,0.2-0.8l-2.3-2.3
	c-0.3,0.2-0.6,0.2-0.9,0.2c-0.3,0-0.6-0.1-0.8-0.2L32.8,46c0.1,0.2,0.2,0.5,0.2,0.8C33,47.8,32.1,48.6,31.1,48.6z M31.6,46.3
	C31.6,46.3,31.6,46.3,31.6,46.3C31.6,46.3,31.6,46.3,31.6,46.3c-0.1-0.1-0.3-0.2-0.4-0.2c-0.3,0-0.6,0.3-0.6,0.6
	c0,0.3,0.3,0.6,0.6,0.6s0.6-0.3,0.6-0.6C31.7,46.6,31.7,46.4,31.6,46.3z M46.5,41.5c0.3,0,0.6-0.3,0.6-0.6s-0.3-0.6-0.6-0.6
	c-0.3,0-0.6,0.3-0.6,0.6S46.2,41.5,46.5,41.5z M40.6,47.4c0.3,0,0.6-0.3,0.6-0.6c0-0.3-0.3-0.6-0.6-0.6S40,46.4,40,46.8
	C40,47.1,40.2,47.4,40.6,47.4z M35.8,42.7c0.3,0,0.6-0.3,0.6-0.6c0-0.3-0.3-0.6-0.6-0.6c-0.3,0-0.6,0.3-0.6,0.6
	C35.2,42.5,35.5,42.7,35.8,42.7z M26.1,41.4c0.1,0.1,0.2,0.3,0.2,0.4c0,0.2-0.1,0.3-0.2,0.4c-0.1,0.1-0.3,0.2-0.4,0.2
	c-0.2,0-0.3-0.1-0.4-0.2c-0.1-0.1-0.2-0.3-0.2-0.4c0-0.2,0.1-0.3,0.2-0.4c0.1-0.1,0.3-0.2,0.4-0.2C25.9,41.2,26,41.3,26.1,41.4z
	 M22.8,32h6.8v-6.8c0-0.3,0.3-0.6,0.6-0.6c4.4,0,8,3.6,8,8c0,4.4-3.6,8-8,8s-8-3.6-8-8C22.2,32.3,22.4,32,22.8,32z M30.8,25.8v5.3
	l3.7-3.7C33.5,26.5,32.2,26,30.8,25.8z M30.2,39.4c3.7,0,6.8-3,6.8-6.8c0-1.7-0.6-3.2-1.6-4.4L30.6,33c0,0,0,0,0,0
	c-0.1,0.1-0.3,0.2-0.4,0.2h-6.8C23.7,36.7,26.6,39.4,30.2,39.4z"/>
</svg>
