<?xml version="1.0" encoding="utf-8"?>
<!-- Generator: Adobe Illustrator 23.0.3, SVG Export Plug-In . SVG Version: 6.00 Build 0)  -->
<svg version="1.1" id="Layer_1" xmlns="http://www.w3.org/2000/svg" xmlns:xlink="http://www.w3.org/1999/xlink" x="0px" y="0px"
	 viewBox="0 0 70 70" style="enable-background:new 0 0 70 70;" xml:space="preserve">
<style type="text/css">
	.st0{fill-rule:evenodd;clip-rule:evenodd;fill:#F5DFFF;}
	.st1{fill-rule:evenodd;clip-rule:evenodd;fill:#AF00FF;}
</style>
<path class="st0" d="M35,0c19.3,0,35,15.7,35,35S54.3,70,35,70S0,54.3,0,35S15.7,0,35,0z"/>
<path class="st1" d="M54.2,37h-1.5c-0.4,0-0.8-0.3-0.8-0.8c0-0.4,0.3-0.8,0.8-0.8h1.5c0.4,0,0.8,0.3,0.8,0.8
	C55,36.7,54.7,37,54.2,37z M36.8,52.4C36.5,52.8,36,53,35.5,53l0,0c-0.5,0-1-0.2-1.3-0.6L20.6,37.3c-0.5-0.6-0.6-1.5-0.2-2.1
	l4.3-6.5c0.3-0.5,0.9-0.8,1.5-0.8h18.7c0.6,0,1.2,0.3,1.5,0.8l4.2,6.5c0.4,0.7,0.4,1.5-0.2,2.1L36.8,52.4z M48.7,37H41l-4.1,13
	L48.7,37z M35.5,49.5L39.4,37h-7.8L35.5,49.5z M34,50L30,37h-7.7L34,50z M25.6,30L22,35.5h7.2L25.6,30z M27,29.4l3.6,5.4l3.6-5.4H27
	z M32,35.5H39l-3.5-5.4L32,35.5z M36.9,29.4l3.6,5.5l3.6-5.5H36.9z M45.4,30l-3.6,5.5H49L45.4,30z M46.8,26.2
	c-0.1,0.1-0.3,0.2-0.5,0.2s-0.4-0.1-0.5-0.2c-0.3-0.3-0.3-0.8,0-1.1l2.5-2.5c0.3-0.3,0.8-0.3,1.1,0c0.3,0.3,0.3,0.8,0,1.1L46.8,26.2
	z M35.5,24.4c0.2,0,0.4,0.1,0.5,0.2c0.1,0.1,0.2,0.3,0.2,0.5s-0.1,0.4-0.2,0.5c-0.1,0.1-0.3,0.2-0.5,0.2s-0.4-0.1-0.5-0.2
	c-0.1-0.1-0.2-0.3-0.2-0.5c0-0.2,0.1-0.4,0.2-0.5C35.1,24.5,35.3,24.4,35.5,24.4z M35.5,23.4c-0.4,0-0.8-0.3-0.8-0.8v-4.9
	c0-0.4,0.3-0.8,0.8-0.8c0.4,0,0.8,0.3,0.8,0.8v4.9C36.3,23.1,35.9,23.4,35.5,23.4z M24.8,26.4c-0.2,0-0.4-0.1-0.5-0.2l-2.5-2.5
	c-0.3-0.3-0.3-0.8,0-1.1c0.3-0.3,0.8-0.3,1.1,0l2.5,2.5c0.3,0.3,0.3,0.8,0,1.1C25.2,26.3,25,26.4,24.8,26.4z M18.3,37h-1.5
	c-0.4,0-0.8-0.3-0.8-0.8c0-0.4,0.3-0.8,0.8-0.8h1.5c0.4,0,0.8,0.3,0.8,0.8C19.1,36.7,18.7,37,18.3,37z"/>
</svg>
