<?xml version="1.0" encoding="utf-8"?>
<!-- Generator: Adobe Illustrator 23.0.3, SVG Export Plug-In . SVG Version: 6.00 Build 0)  -->
<svg version="1.1" id="Layer_1" xmlns="http://www.w3.org/2000/svg" xmlns:xlink="http://www.w3.org/1999/xlink" x="0px" y="0px"
	 viewBox="0 0 70 70" style="enable-background:new 0 0 70 70;" xml:space="preserve">
<style type="text/css">
	.st0{fill-rule:evenodd;clip-rule:evenodd;fill:#DFFFE3;}
	.st1{fill-rule:evenodd;clip-rule:evenodd;fill:#0FFF2D;}
</style>
<path class="st0" d="M35,0c19.3,0,35,15.7,35,35S54.3,70,35,70S0,54.3,0,35S15.7,0,35,0z"/>
<path class="st1" d="M48.8,52H22.2c-1.8,0-3.2-1.4-3.2-3.2V31.1c0-0.2,0.1-0.4,0.3-0.5l0,0l3.2-2.3v-7.3c0-1.1,0.9-1.9,1.9-1.9h3.5
	c0.4,0,0.6,0.3,0.6,0.6c0,0.4-0.3,0.6-0.6,0.6h-3.5c-0.4,0-0.6,0.3-0.6,0.6v12.7l7.9,6.4l2-1.4c1.1-0.8,2.6-0.8,3.8,0l2,1.4l7.9-6.4
	V20.9c0-0.4-0.3-0.6-0.6-0.6H33c-0.4,0-0.6-0.3-0.6-0.6c0-0.4,0.3-0.6,0.6-0.6h13.6c1.1,0,1.9,0.9,1.9,1.9v7.3l3.2,2.3
	c0.2,0.1,0.3,0.3,0.3,0.5c0,0,0,0,0,0v17.7C52,50.6,50.6,52,48.8,52z M22.5,29.8l-1.8,1.3l1.8,1.5V29.8z M20.3,32.4v15.8l10.3-7.4
	L20.3,32.4z M36.6,39.6c-0.7-0.5-1.6-0.5-2.3,0l-13.9,10c0.3,0.6,1,1.1,1.7,1.1h26.6c0.7,0,1.4-0.4,1.7-1.1l-1-0.8h-8.2
	c-0.4,0-0.6-0.3-0.6-0.6c0-0.4,0.3-0.6,0.6-0.6h6.4L36.6,39.6z M48.5,29.8v2.7l1.8-1.5L48.5,29.8z M50.7,32.4l-10.3,8.4l10.3,7.4
	V32.4z M38.3,48.9c-0.2,0-0.3-0.1-0.5-0.2c-0.1-0.1-0.2-0.3-0.2-0.5c0-0.2,0.1-0.3,0.2-0.5c0.1-0.1,0.3-0.2,0.5-0.2
	c0.2,0,0.3,0.1,0.5,0.2s0.2,0.3,0.2,0.5c0,0.2-0.1,0.3-0.2,0.5S38.5,48.9,38.3,48.9z M35.5,22.5c3.6,0,6.5,2.9,6.5,6.5
	c0,3.6-2.9,6.5-6.5,6.5S29,32.5,29,29S31.9,22.5,35.5,22.5z M35.5,34.1c2.9,0,5.2-2.3,5.2-5.2c0-2.9-2.3-5.2-5.2-5.2
	s-5.2,2.3-5.2,5.2C30.3,31.8,32.6,34.1,35.5,34.1z M33.2,28.5l1.4,1.4l3.2-3.2c0.3-0.3,0.7-0.3,0.9,0c0.3,0.3,0.3,0.7,0,0.9
	l-3.6,3.6c-0.1,0.1-0.3,0.2-0.5,0.2c-0.2,0-0.3-0.1-0.5-0.2l-1.8-1.8c-0.3-0.3-0.3-0.7,0-0.9C32.6,28.2,33,28.2,33.2,28.5z
	 M30.4,20.3c-0.2,0-0.3-0.1-0.5-0.2c-0.1-0.1-0.2-0.3-0.2-0.5c0-0.2,0.1-0.3,0.2-0.5c0.1-0.1,0.3-0.2,0.5-0.2s0.3,0.1,0.5,0.2
	c0.1,0.1,0.2,0.3,0.2,0.5c0,0.2-0.1,0.3-0.2,0.5C30.8,20.2,30.6,20.3,30.4,20.3z"/>
</svg>
