<?xml version="1.0" encoding="utf-8"?>
<!-- Generator: Adobe Illustrator 23.0.3, SVG Export Plug-In . SVG Version: 6.00 Build 0)  -->
<svg version="1.1" id="Layer_1" xmlns="http://www.w3.org/2000/svg" xmlns:xlink="http://www.w3.org/1999/xlink" x="0px" y="0px"
	 viewBox="0 0 100 99.5" style="enable-background:new 0 0 100 99.5;" xml:space="preserve">
<style type="text/css">
	.st0{fill-rule:evenodd;clip-rule:evenodd;fill:#DFEDFF;}
	.st1{fill-rule:evenodd;clip-rule:evenodd;fill:#CFE4FE;}
	.st2{fill-rule:evenodd;clip-rule:evenodd;fill:#0F7BFF;}
</style>
<path class="st0" d="M50,0c27.6,0,50,22.4,50,50c0,27.6-22.4,50-50,50S0,77.6,0,50C0,22.4,22.4,0,50,0z"/>
<path class="st1" d="M50.5,13C71.2,13,88,29.8,88,50.5C88,71.2,71.2,88,50.5,88S13,71.2,13,50.5C13,29.8,29.8,13,50.5,13z"/>
<path class="st2" d="M79.3,35.3c-1.6,4.5-4.2,8.7-7.5,12L64,55.1l-1.4,11.1c0,0.3-0.1,0.5-0.3,0.7L51.5,77.5
	c-0.2,0.2-0.5,0.3-0.8,0.3c-0.1,0-0.2,0-0.3-0.1c-0.4-0.1-0.7-0.5-0.8-0.9l-1.5-8.1l-1.6-1.6l-1.8,3.4c-0.2,0.3-0.5,0.5-0.9,0.6
	c-0.1,0-0.1,0-0.2,0c-0.3,0-0.6-0.1-0.8-0.3L29.9,58.1c-0.3-0.3-0.4-0.6-0.3-1c0.1-0.4,0.3-0.7,0.6-0.8l3.4-1.8L32,52.8l-8.1-1.5
	c-0.4-0.1-0.8-0.4-0.9-0.8c-0.1-0.4,0-0.9,0.3-1.2L34,38.7c0.2-0.2,0.4-0.3,0.7-0.3l11.1-1.4l7.7-7.7c3.4-3.4,7.6-6,12.1-7.5
	c4.5-1.5,9.4-2.1,14.2-1.5c0.5,0.1,0.9,0.5,1,1C81.4,26,80.8,30.8,79.3,35.3z M51.5,74.3l8.9-8.9l1-7.7l-11,10.9L51.5,74.3z
	 M32.7,57.5l10.7,10.6l1.4-2.6l-9.5-9.4L32.7,57.5z M35.4,40.6l-8.9,8.9l5.7,1.1l11-10.9L35.4,40.6z M55.2,30.9l-21,20.9l14.9,14.9
	l21-20.9c3-3,5.4-6.8,6.9-10.8c-2.7-0.5-5.2-1.8-7.2-3.8c-2-2-3.3-4.4-3.8-7.1C62,25.5,58.2,27.8,55.2,30.9z M78.6,22.4
	c-3.5-0.3-7,0-10.3,0.9c0.4,2.3,1.5,4.5,3.2,6.2c1.7,1.7,3.9,2.8,6.2,3.2C78.6,29.4,78.9,25.9,78.6,22.4z M64,46.9
	c-1.4,1.4-3.2,2-5,2c-1.8,0-3.6-0.7-5-2c-2.7-2.7-2.7-7.2,0-9.9c2.7-2.7,7.2-2.7,9.9,0C66.7,39.7,66.7,44.1,64,46.9L64,46.9z
	 M62.3,38.6c-0.9-0.9-2.1-1.4-3.3-1.4c-1.2,0-2.4,0.5-3.3,1.4c-1.8,1.8-1.8,4.8,0,6.6c1.8,1.8,4.8,1.8,6.7,0
	C64.2,43.4,64.2,40.4,62.3,38.6z M26.4,68.3c0.5,0.5,0.5,1.2,0,1.6L22,74.4c-0.2,0.2-0.5,0.3-0.8,0.3c-0.3,0-0.6-0.1-0.8-0.3
	c-0.5-0.5-0.5-1.2,0-1.6l4.5-4.5C25.3,67.8,26,67.8,26.4,68.3z M27.1,67.4C27.1,67.4,27.1,67.4,27.1,67.4C27,67.3,27,67.3,27.1,67.4
	c-0.3-0.5-0.2-1.1,0.1-1.4c0.3-0.4,0.9-0.5,1.4-0.2c0.4,0.2,0.7,0.7,0.6,1.1c0,0.5-0.4,0.9-0.9,1C27.8,67.9,27.3,67.7,27.1,67.4z
	 M30.5,65.4c-0.3,0-0.6-0.1-0.8-0.3c-0.5-0.5-0.5-1.2,0-1.6l0.6-0.6c0.5-0.5,1.2-0.5,1.6,0c0.5,0.5,0.5,1.2,0,1.6l-0.6,0.6
	C31.1,65.3,30.8,65.4,30.5,65.4z M33.4,66c0.5-0.4,1.2-0.4,1.6,0s0.5,1.2,0,1.6l-9.9,9.9c-0.2,0.2-0.5,0.3-0.8,0.3
	c-0.3,0-0.6-0.1-0.8-0.3c-0.5-0.5-0.5-1.2,0-1.6L33.4,66z M27.3,78.4c0.5-0.4,1.2-0.4,1.6,0s0.5,1.2,0,1.6l-0.6,0.6
	c-0.2,0.2-0.5,0.3-0.8,0.3s-0.6-0.1-0.8-0.3c-0.5-0.5-0.5-1.2,0-1.6L27.3,78.4z M30.6,75.6c0.5,0,0.9,0.3,1.1,0.7
	c0.2,0.5,0,1.1-0.4,1.4c-0.4,0.3-1,0.3-1.4,0c-0.4-0.3-0.5-0.8-0.4-1.3C29.6,75.9,30.1,75.6,30.6,75.6z M36.6,69.1
	c0.5-0.4,1.2-0.4,1.6,0s0.5,1.2,0,1.6l-4.5,4.5c-0.2,0.2-0.5,0.3-0.8,0.3s-0.6-0.1-0.8-0.3c-0.5-0.4-0.5-1.2,0-1.6L36.6,69.1z"/>
</svg>
