<?xml version="1.0" encoding="utf-8"?>
<!-- Generator: Adobe Illustrator 23.0.3, SVG Export Plug-In . SVG Version: 6.00 Build 0)  -->
<svg version="1.1" id="Layer_1" xmlns="http://www.w3.org/2000/svg" xmlns:xlink="http://www.w3.org/1999/xlink" x="0px" y="0px"
	 viewBox="0 0 100 100" style="enable-background:new 0 0 100 100;" xml:space="preserve">
<style type="text/css">
	.st0{fill-rule:evenodd;clip-rule:evenodd;fill:#DFEDFF;}
	.st1{fill-rule:evenodd;clip-rule:evenodd;fill:#CFE4FE;}
	.st2{fill-rule:evenodd;clip-rule:evenodd;fill:#0F7BFF;}
</style>
<path class="st0" d="M50,0c27.6,0,50,22.4,50,50c0,27.6-22.4,50-50,50S0,77.6,0,50C0,22.4,22.4,0,50,0z"/>
<path class="st1" d="M50.5,13C71.2,13,88,29.8,88,50.5C88,71.2,71.2,88,50.5,88S13,71.2,13,50.5C13,29.8,29.8,13,50.5,13z"/>
<path class="st2" d="M78,24.4c0,0,0,0.1,0,0.1L61.2,77.2c-0.2,0.5-0.6,0.8-1.1,0.8c0,0,0,0-0.1,0c-0.5,0-0.9-0.3-1.1-0.7L48.4,52.7
	l-24.6-9.4c-0.5-0.2-0.8-0.6-0.8-1.1c0-0.5,0.3-0.9,0.8-1.1L76.4,23c0,0,0.1,0,0.1,0c0.1,0,0.1,0,0.2,0c0.1,0,0.1,0,0.2,0
	c0.1,0,0.1,0,0.2,0c0.1,0,0.1,0,0.2,0.1c0,0,0.1,0,0.1,0c0,0,0,0,0.1,0c0.1,0,0.1,0.1,0.2,0.1c0,0,0.1,0.1,0.1,0.2c0,0,0,0,0.1,0.1
	c0,0,0,0.1,0,0.1c0,0.1,0.1,0.1,0.1,0.2c0,0.1,0,0.1,0,0.2c0,0.1,0,0.1,0,0.2C78,24.3,78,24.4,78,24.4z M27.7,42.2L49,50.4L72.3,27
	L27.7,42.2z M50.7,52l9.2,21.4l14.3-44.9L50.7,52z M31.7,54.4c0.5-0.5,1.2-0.5,1.7,0c0.5,0.5,0.5,1.2,0,1.7L25,64.5
	c-0.2,0.2-0.5,0.4-0.8,0.4c-0.3,0-0.6-0.1-0.8-0.4c-0.5-0.5-0.5-1.2,0-1.7L31.7,54.4z M40.1,59.2c0.5-0.5,1.2-0.5,1.7,0
	c0.5,0.5,0.5,1.2,0,1.7L25,77.6c-0.2,0.2-0.5,0.3-0.8,0.3c-0.3,0-0.6-0.1-0.8-0.3c-0.5-0.5-0.5-1.2,0-1.7L40.1,59.2z M44.9,67.6
	c0.5-0.5,1.2-0.5,1.7,0c0.5,0.5,0.5,1.2,0,1.7l-8.4,8.4C38,77.9,37.7,78,37.4,78s-0.6-0.1-0.8-0.3c-0.5-0.5-0.5-1.2,0-1.7L44.9,67.6
	z"/>
</svg>
