<svg id="ELEMENTS" xmlns="http://www.w3.org/2000/svg" viewBox="0 0 47.36 40.55"><defs><style>.cls-1{fill:#3cf;}</style></defs><title>Artboard 1</title><path class="cls-1" d="M45.78,8a17.87,17.87,0,0,1-4.35,1.24c.7-.12,1.73-1.39,2.14-1.9A7.86,7.86,0,0,0,45,4.73c0-.07.07-.17,0-.22a.26.26,0,0,0-.23,0,22,22,0,0,1-5.15,2,.36.36,0,0,1-.36-.1,3.93,3.93,0,0,0-.45-.46,9.18,9.18,0,0,0-2.5-1.53,8.65,8.65,0,0,0-3.83-.61,9.06,9.06,0,0,0-3.63,1,9.32,9.32,0,0,0-2.93,2.4,8.89,8.89,0,0,0-1.75,3.5,9.41,9.41,0,0,0-.09,3.7c0,.21,0,.24-.18.21C16.82,13.58,11,11,6.19,5.61c-.21-.23-.32-.23-.49,0C3.61,8.76,4.63,13.78,7.23,16.24a14.37,14.37,0,0,0,1.09,1,9,9,0,0,1-3.42-1c-.21-.13-.31,0-.33.18a5.12,5.12,0,0,0,.06,1,9.09,9.09,0,0,0,5.6,7.24,4.91,4.91,0,0,0,1.13.34A10.15,10.15,0,0,1,8,25.13c-.24-.05-.34.07-.24.31,1.47,4,4.65,5.21,7,5.89.32.06.64.06,1,.14,0,0,0,0-.06.05-.79,1.21-3.53,2.11-4.81,2.55A17.27,17.27,0,0,1,3.6,35C3.2,35,3.12,35,3,35s0,.16.12.26c.49.33,1,.62,1.52.9a23.91,23.91,0,0,0,4.88,1.95c8.78,2.43,18.66.65,25.25-5.9,5.17-5.14,7-12.23,7-19.33,0-.28.32-.43.52-.58a17.13,17.13,0,0,0,3.44-3.57A1.08,1.08,0,0,0,46,8.06V8C46,7.9,46,7.94,45.78,8Z"/></svg>