<?xml version="1.0" encoding="utf-8"?>
<!-- Generator: Adobe Illustrator 23.0.3, SVG Export Plug-In . SVG Version: 6.00 Build 0)  -->
<svg version="1.1" id="Layer_1" xmlns="http://www.w3.org/2000/svg" xmlns:xlink="http://www.w3.org/1999/xlink" x="0px" y="0px"
	 viewBox="0 0 100 100" style="enable-background:new 0 0 100 100;" xml:space="preserve">
<style type="text/css">
	.st0{fill-rule:evenodd;clip-rule:evenodd;fill:#DFEDFF;}
	.st1{fill-rule:evenodd;clip-rule:evenodd;fill:#0F7BFF;}
</style>
<path class="st0" d="M50,0c27.6,0,50,22.4,50,50s-22.4,50-50,50S0,77.6,0,50S22.4,0,50,0z"/>
<path class="st1" d="M72.5,43.9L61.2,63.4c-0.1,0.1-0.1,0.2-0.2,0.3L55.2,68c-0.2,0.1-0.3,0.2-0.5,0.2c-0.2,0-0.3,0-0.4-0.1
	c-0.3-0.2-0.5-0.5-0.4-0.9l0.8-7.1c0-0.1,0.1-0.2,0.1-0.3L66,40.1c0.5-0.9,1.3-1.5,2.3-1.8c1-0.3,2-0.1,2.9,0.4
	C72.9,39.7,73.5,42.1,72.5,43.9z M55.8,65.3l3-2.2l-2.6-1.5L55.8,65.3z M65.7,44.1l-9.1,15.7l3.4,2l9.1-15.7L65.7,44.1z M71.1,41.5
	c-0.1-0.5-0.5-0.9-0.9-1.2c-0.5-0.3-1-0.3-1.5-0.2c-0.5,0.1-0.9,0.5-1.2,0.9l-0.9,1.5l3.4,2l0.9-1.5C71.2,42.5,71.3,42,71.1,41.5z
	 M34.9,62.9c-0.2,0.2-0.4,0.3-0.6,0.3s-0.5-0.1-0.6-0.3c-0.2-0.2-0.3-0.4-0.3-0.6s0.1-0.5,0.3-0.6s0.4-0.3,0.6-0.3s0.5,0.1,0.6,0.3
	c0.2,0.2,0.3,0.4,0.3,0.6S35.1,62.7,34.9,62.9z M34.3,53.1c-0.2,0-0.5-0.1-0.6-0.3c-0.2-0.2-0.3-0.4-0.3-0.6c0-0.2,0.1-0.5,0.3-0.6
	c0.2-0.2,0.4-0.3,0.6-0.3s0.5,0.1,0.6,0.3c0.2,0.2,0.3,0.4,0.3,0.6c0,0.2-0.1,0.5-0.3,0.6C34.8,53,34.5,53.1,34.3,53.1z M34.9,57.8
	c-0.2,0.2-0.4,0.3-0.6,0.3s-0.5-0.1-0.6-0.3s-0.3-0.4-0.3-0.6c0-0.2,0.1-0.5,0.3-0.6c0.2-0.2,0.4-0.3,0.6-0.3s0.5,0.1,0.6,0.3
	c0.2,0.2,0.3,0.4,0.3,0.6C35.2,57.4,35.1,57.7,34.9,57.8z M50.9,68.1H46c-0.5,0-0.9-0.4-0.9-0.9s0.4-0.9,0.9-0.9h4.9
	c0.5,0,0.9,0.4,0.9,0.9S51.4,68.1,50.9,68.1z M46,31.9c4.6,0,8.3,3.7,8.3,8.3c0,2.4-1,4.5-2.6,6c0,0-0.1,0.1-0.1,0.1
	c-1.5,1.3-3.4,2.2-5.6,2.2s-4.1-0.8-5.6-2.2c0,0-0.1-0.1-0.1-0.1c-1.6-1.5-2.6-3.6-2.6-6C37.8,35.6,41.5,31.9,46,31.9z M46,46.6
	c1.5,0,2.8-0.5,3.9-1.3C49.2,43.9,47.7,43,46,43c-1.6,0-3.1,0.9-3.9,2.3C43.2,46.1,44.6,46.6,46,46.6z M47.5,39.8v-0.6
	c0-0.8-0.6-1.4-1.4-1.4c-0.8,0-1.4,0.6-1.4,1.4v0.6c0,0.8,0.6,1.4,1.4,1.4C46.8,41.2,47.5,40.5,47.5,39.8z M40.8,44
	c0.7-1,1.6-1.7,2.6-2.2c-0.4-0.5-0.7-1.2-0.7-2v-0.6c0-1.8,1.5-3.2,3.2-3.2c1.8,0,3.2,1.5,3.2,3.2v0.6c0,0.7-0.3,1.4-0.7,2
	c1.1,0.5,2,1.2,2.6,2.2c0.8-1.1,1.3-2.4,1.3-3.8c0-3.6-2.9-6.5-6.5-6.5s-6.5,2.9-6.5,6.5C39.6,41.6,40,42.9,40.8,44z M38.1,51.3
	h12.8c0.5,0,0.9,0.4,0.9,0.9c0,0.5-0.4,0.9-0.9,0.9H38.1c-0.5,0-0.9-0.4-0.9-0.9C37.2,51.7,37.6,51.3,38.1,51.3z M38.1,61.3h12.8
	c0.5,0,0.9,0.4,0.9,0.9c0,0.5-0.4,0.9-0.9,0.9H38.1c-0.5,0-0.9-0.4-0.9-0.9C37.2,61.7,37.6,61.3,38.1,61.3z M38.1,56.3h12.8
	c0.5,0,0.9,0.4,0.9,0.9c0,0.5-0.4,0.9-0.9,0.9H38.1c-0.5,0-0.9-0.4-0.9-0.9C37.2,56.7,37.6,56.3,38.1,56.3z M64.2,40.4
	c-0.5,0-0.9-0.4-0.9-0.9v-9.8c0-0.5-0.4-0.9-0.9-0.9H29.7c-0.5,0-0.9,0.4-0.9,0.9v40.6c0,0.5,0.4,0.9,0.9,0.9h32.7
	c0.5,0,0.9-0.4,0.9-0.9v-6.6c0-0.5,0.4-0.9,0.9-0.9c0.5,0,0.9,0.4,0.9,0.9v6.6c0,1.5-1.2,2.7-2.7,2.7H29.7c-1.5,0-2.7-1.2-2.7-2.7
	V29.7c0-1.5,1.2-2.7,2.7-2.7h32.7c1.5,0,2.7,1.2,2.7,2.7v9.8C65.1,40,64.7,40.4,64.2,40.4z"/>
</svg>
