<?xml version="1.0" encoding="utf-8"?>
<!-- Generator: Adobe Illustrator 23.0.3, SVG Export Plug-In . SVG Version: 6.00 Build 0)  -->
<svg version="1.1" id="Layer_1" xmlns="http://www.w3.org/2000/svg" xmlns:xlink="http://www.w3.org/1999/xlink" x="0px" y="0px"
	 viewBox="0 0 100 99.7" style="enable-background:new 0 0 100 99.7;" xml:space="preserve">
<style type="text/css">
	.st0{fill-rule:evenodd;clip-rule:evenodd;fill:#DFEDFF;}
	.st1{fill-rule:evenodd;clip-rule:evenodd;fill:#0F7BFF;}
</style>
<path class="st0" d="M50,0c27.6,0,50,22.4,50,50s-22.4,50-50,50S0,77.6,0,50S22.4,0,50,0z"/>
<path class="st1" d="M69.4,74H31.6c-2.5,0-4.6-2.1-4.6-4.6V44.2c0-0.3,0.1-0.6,0.4-0.7c0,0,0,0,0,0l4.6-3.3V29.8
	c0-1.5,1.2-2.8,2.8-2.8h5c0.5,0,0.9,0.4,0.9,0.9c0,0.5-0.4,0.9-0.9,0.9h-5c-0.5,0-0.9,0.4-0.9,0.9v18L45,56.9l2.8-2
	c1.6-1.2,3.8-1.2,5.4,0l2.8,2l11.2-9.1v-18c0-0.5-0.4-0.9-0.9-0.9H46.9c-0.5,0-0.9-0.4-0.9-0.9c0-0.5,0.4-0.9,0.9-0.9h19.4
	c1.5,0,2.8,1.2,2.8,2.8v10.4l4.6,3.3c0.2,0.2,0.4,0.4,0.4,0.7c0,0,0,0,0,0v25.2C74,71.9,71.9,74,69.4,74z M32,42.4l-2.5,1.8l2.5,2.1
	V42.4z M28.8,46.1v22.5L43.5,58L28.8,46.1z M52.1,56.4c-1-0.7-2.3-0.7-3.2,0L29.1,70.7c0.5,0.9,1.4,1.5,2.4,1.5h37.8
	c1.1,0,2-0.6,2.4-1.5l-1.5-1.1H58.7c-0.5,0-0.9-0.4-0.9-0.9c0-0.5,0.4-0.9,0.9-0.9h9.2L52.1,56.4z M69,42.4v3.9l2.5-2.1L69,42.4z
	 M72.2,46.1L57.5,58l14.6,10.6V46.1z M54.5,69.6c-0.2,0-0.5-0.1-0.6-0.3c-0.2-0.2-0.3-0.4-0.3-0.6c0-0.2,0.1-0.5,0.3-0.6
	c0.2-0.2,0.4-0.3,0.6-0.3c0.2,0,0.5,0.1,0.6,0.3c0.2,0.2,0.3,0.4,0.3,0.6c0,0.2-0.1,0.5-0.3,0.6C55,69.5,54.8,69.6,54.5,69.6z
	 M50.5,32c5.1,0,9.2,4.1,9.2,9.2s-4.1,9.2-9.2,9.2s-9.2-4.1-9.2-9.2S45.4,32,50.5,32z M50.5,48.6c4.1,0,7.4-3.3,7.4-7.4
	c0-4.1-3.3-7.4-7.4-7.4s-7.4,3.3-7.4,7.4C43.1,45.3,46.4,48.6,50.5,48.6z M47.3,40.5l1.9,1.9l4.5-4.5c0.4-0.4,0.9-0.4,1.3,0
	c0.4,0.4,0.4,0.9,0,1.3l-5.2,5.2c-0.2,0.2-0.4,0.3-0.6,0.3c-0.2,0-0.5-0.1-0.6-0.3L46,41.8c-0.4-0.4-0.4-0.9,0-1.3
	C46.3,40.2,46.9,40.2,47.3,40.5z M43.3,28.8c-0.2,0-0.5-0.1-0.6-0.3c-0.2-0.2-0.3-0.4-0.3-0.6c0-0.2,0.1-0.5,0.3-0.6
	c0.2-0.2,0.4-0.3,0.6-0.3c0.2,0,0.5,0.1,0.6,0.3c0.2,0.2,0.3,0.4,0.3,0.6c0,0.2-0.1,0.5-0.3,0.6C43.7,28.7,43.5,28.8,43.3,28.8z"/>
</svg>
