<?xml version="1.0" encoding="utf-8"?>
<!-- Generator: Adobe Illustrator 23.0.3, SVG Export Plug-In . SVG Version: 6.00 Build 0)  -->
<svg version="1.1" id="Layer_1" xmlns="http://www.w3.org/2000/svg" xmlns:xlink="http://www.w3.org/1999/xlink" x="0px" y="0px"
	 viewBox="0 0 100 100" style="enable-background:new 0 0 100 100;" xml:space="preserve">
<style type="text/css">
	.st0{fill-rule:evenodd;clip-rule:evenodd;fill:#DFEDFF;}
	.st1{fill-rule:evenodd;clip-rule:evenodd;fill:#0F7BFF;}
</style>
<path class="st0" d="M50,0c27.6,0,50,22.4,50,50s-22.4,50-50,50S0,77.6,0,50S22.4,0,50,0z"/>
<path class="st1" d="M39.6,41c0.6-2.6,3-4.4,5.7-4.4c1.7,0,3.3,0.7,4.7,1.9c1.4-1.2,3-1.9,4.7-1.9c2.7,0,5.1,1.8,5.7,4.4
	c0.3,1.4,0.3,3.7-1.6,6.4c-1.7,2.5-4.6,4.8-8.5,7c-0.2,0.1-0.5,0.1-0.7,0c-3.9-2.1-6.8-4.5-8.5-7C39.3,44.6,39.3,42.4,39.6,41z
	 M42.4,46.5c1.5,2.2,4.1,4.4,7.6,6.3c3.5-2,6.1-4.1,7.6-6.3c1.2-1.8,1.7-3.6,1.3-5.2c-0.5-2-2.2-3.3-4.3-3.3c-1.5,0-3,0.7-4.2,1.9
	c-0.3,0.3-0.7,0.3-1,0c-1.2-1.2-2.7-1.9-4.2-1.9c-2.1,0-3.8,1.3-4.3,3.3C40.7,42.9,41.1,44.7,42.4,46.5z M44.9,42
	c0.4,0,0.7,0.3,0.7,0.8v1c0,0.4-0.3,0.8-0.7,0.8c-0.4,0-0.7-0.3-0.7-0.8v-1C44.1,42.4,44.5,42,44.9,42z M49.3,43.2
	c0.2,0.2,0.4,0.3,0.7,0.3s0.5-0.1,0.7-0.3c0.3-0.3,0.7-0.3,1-0.1c0.3,0.3,0.3,0.8,0.1,1.1C51.4,44.7,50.7,45,50,45s-1.4-0.3-1.8-0.8
	c-0.3-0.3-0.2-0.8,0.1-1.1C48.6,42.8,49,42.9,49.3,43.2z M55.1,42c0.4,0,0.7,0.3,0.7,0.8v1c0,0.4-0.3,0.8-0.7,0.8
	c-0.4,0-0.7-0.3-0.7-0.8v-1C54.4,42.4,54.7,42,55.1,42z M40.6,57.1h18.8c0.4,0,0.7,0.3,0.7,0.8c0,0.4-0.3,0.8-0.7,0.8H40.6
	c-0.4,0-0.7-0.3-0.7-0.8C39.8,57.4,40.2,57.1,40.6,57.1z M40.6,65.1h18.8c0.4,0,0.7,0.3,0.7,0.8s-0.3,0.8-0.7,0.8H40.6
	c-0.4,0-0.7-0.3-0.7-0.8S40.2,65.1,40.6,65.1z M40.6,61.1h18.8c0.4,0,0.7,0.3,0.7,0.8c0,0.4-0.3,0.8-0.7,0.8H40.6
	c-0.4,0-0.7-0.3-0.7-0.8C39.8,61.4,40.2,61.1,40.6,61.1z M69.3,38.9c0.4,0,0.7,0.3,0.7,0.8v31.7c0,2.6-2,4.7-4.5,4.7h-31
	C32,76,30,73.9,30,71.3V31.8c0-2.6,2-4.7,4.5-4.7h3.9c0.3-0.9,1.1-1.5,2-1.5h5.2c0.4,0,0.8-0.2,1.2-0.4c0.9-0.8,2-1.2,3.2-1.2
	s2.3,0.4,3.2,1.2c0.3,0.3,0.7,0.4,1.2,0.4h5.2c0.9,0,1.7,0.6,2,1.5h3.9c2.5,0,4.5,2.1,4.5,4.7v4.8c0,0.4-0.3,0.8-0.7,0.8
	c-0.4,0-0.7-0.3-0.7-0.8v-4.8c0-1.7-1.4-3.1-3-3.1h-3.8V31h3.8c0.4,0,0.7,0.3,0.7,0.8v39.6c0,0.4-0.3,0.8-0.7,0.8H34.5
	c-0.4,0-0.7-0.3-0.7-0.8v-7.6c0-0.4,0.3-0.8,0.7-0.8c0.4,0,0.7,0.3,0.7,0.8v6.8h29.5V32.5h-3.1c0,0,0,0,0,0
	c-0.1,0.4-0.4,0.8-0.8,1.1c-0.4,0.3-0.8,0.5-1.3,0.5h-19c-0.4,0-0.7-0.1-1.1-0.3c-0.5-0.3-0.8-0.8-1-1.3c0,0,0,0,0,0h-3.1v28.2
	c0,0.4-0.3,0.8-0.7,0.8c-0.4,0-0.7-0.3-0.7-0.8v-29c0-0.4,0.3-0.8,0.7-0.8h3.8v-2.3h-3.8c-1.7,0-3,1.4-3,3.1v39.5
	c0,1.7,1.4,3.1,3,3.1h31c1.7,0,3-1.4,3-3.1V39.6C68.5,39.2,68.9,38.9,69.3,38.9z M39.8,31.8c0,0.4,0.2,0.8,0.7,0.8c0,0,19,0,19,0
	c0.5,0,0.7-0.4,0.7-0.8v-3.9c0-0.4-0.3-0.7-0.7-0.7h-5.2c-0.8,0-1.5-0.3-2.1-0.8c-0.6-0.5-1.4-0.8-2.2-0.8s-1.6,0.3-2.2,0.8
	c-0.6,0.5-1.3,0.8-2.1,0.8h-5.2c-0.4,0-0.7,0.3-0.7,0.7V31.8z M50,26.7c1.3,0,2.3,1.1,2.3,2.4c0,1.3-1,2.4-2.3,2.4s-2.3-1.1-2.3-2.4
	C47.7,27.8,48.7,26.7,50,26.7z M50,29.9c0.5,0,0.8-0.4,0.8-0.9c0-0.5-0.4-0.9-0.8-0.9s-0.8,0.4-0.8,0.9C49.2,29.6,49.5,29.9,50,29.9
	z"/>
</svg>
