<?xml version="1.0" encoding="utf-8"?>
<!-- Generator: Adobe Illustrator 23.0.3, SVG Export Plug-In . SVG Version: 6.00 Build 0)  -->
<svg version="1.1" id="Layer_1" xmlns="http://www.w3.org/2000/svg" xmlns:xlink="http://www.w3.org/1999/xlink" x="0px" y="0px"
	 viewBox="0 0 10 20" style="enable-background:new 0 0 10 20;" xml:space="preserve">
<style type="text/css">
	.st0{fill-rule:evenodd;clip-rule:evenodd;fill:#FFFFFF;}
</style>
<path class="st0" d="M9.3,0H7C5.3,0,4.1,0.4,3.3,1.1S2.2,3,2.2,4.5v1.4c0,0.4-0.3,0.7-0.7,0.7H0.7C0.3,6.6,0,6.9,0,7.2v2.1
	C0,9.7,0.3,10,0.7,10h0.8c0.4,0,0.7,0.3,0.7,0.7v8.7c0,0.4,0.3,0.7,0.7,0.7h3c0.4,0,0.7-0.3,0.7-0.7v-8.7C6.7,10.3,7,10,7.4,10h1.5
	c0.4,0,0.8-0.3,0.8-0.7l0.2-2.1c0-0.4-0.2-0.7-0.6-0.7H7.4C7,6.6,6.7,6.3,6.7,5.9V4.8c0-0.3,0-0.5,0-0.6c0-0.1,0.1-0.3,0.2-0.4
	C7,3.7,7.1,3.6,7.3,3.5c0.2-0.1,0.5-0.1,0.8-0.1h1.1c0.4,0,0.7-0.3,0.7-0.7V0.7C10,0.3,9.7,0,9.3,0z"/>
</svg>
