<?xml version="1.0" encoding="utf-8"?>
<!-- Generator: Adobe Illustrator 23.0.3, SVG Export Plug-In . SVG Version: 6.00 Build 0)  -->
<svg version="1.1" id="Layer_1" xmlns="http://www.w3.org/2000/svg" xmlns:xlink="http://www.w3.org/1999/xlink" x="0px" y="0px"
	 viewBox="0 0 18 16" style="enable-background:new 0 0 18 16;" xml:space="preserve">
<style type="text/css">
	.st0{fill-rule:evenodd;clip-rule:evenodd;fill:#D8D8D8;}
</style>
<path class="st0" d="M17.5,2.3c-0.1,0-0.2,0.1-0.3,0.1c-0.5,0.1-0.6,0-0.2-0.5c0.2-0.2,0.3-0.4,0.5-0.6c0.3-0.5,0-0.7-0.5-0.5
	c-0.2,0.1-0.4,0.2-0.6,0.2c-0.5,0.2-1.3-0.1-1.8-0.4c-0.6-0.4-1.3-0.6-2-0.6c-1.1,0-2,0.4-2.7,1.2C9.2,2,8.8,2.9,8.8,4
	c0,0.2,0,0.3,0,0.5c0,0.3-0.4,0.4-0.9,0.4C6.7,4.7,5.6,4.3,4.5,3.7c-1.1-0.6-2-1.3-2.8-2.2C1.2,1.1,0.7,1.1,0.6,1.7
	C0.5,2.1,0.4,2.4,0.4,2.8c0,0.7,0.2,1.3,0.5,1.9C1.1,5,1.2,5.3,1.4,5.5C1.8,5.9,1.7,6.1,1.3,6C0.8,5.8,0.4,5.6,0.4,5.6c0,0,0,0,0,0
	c0,1,0.3,1.8,0.9,2.6C1.7,8.7,2.1,9,2.5,9.3C3,9.6,3.3,9.7,3,9.7c-0.2,0-0.3,0-0.5,0c-0.1,0-0.2,0-0.4,0c-0.2,0-0.2,0.4,0.1,0.9
	c0.2,0.4,0.6,0.7,0.9,1c0.4,0.3,0.8,0.5,1.2,0.7c0.5,0.2,0.6,0.5,0.2,0.8c-1.2,0.7-2.5,1.1-3.9,1.1c-0.2,0-0.3,0-0.5,0
	c-0.3,0-0.1,0.2,0.4,0.5c1.5,0.9,3.2,1.3,5,1.3c1.4,0,2.6-0.2,3.8-0.7c1.2-0.5,2.2-1.1,3.1-1.8c0.8-0.8,1.6-1.6,2.2-2.6
	c0.6-1,1.1-2,1.4-3.1c0.3-1.1,0.5-2.2,0.5-3.2c0-0.1,0-0.2,0-0.3c0-0.1,0.4-0.5,0.8-0.9c0.2-0.2,0.4-0.4,0.5-0.6
	C18.2,2.3,18,2.1,17.5,2.3z"/>
</svg>
