<?xml version="1.0" encoding="utf-8"?>
<!-- Generator: Adobe Illustrator 23.0.3, SVG Export Plug-In . SVG Version: 6.00 Build 0)  -->
<svg version="1.1" id="Layer_1" xmlns="http://www.w3.org/2000/svg" xmlns:xlink="http://www.w3.org/1999/xlink" x="0px" y="0px"
	 viewBox="0 0 19 14" style="enable-background:new 0 0 19 14;" xml:space="preserve">
<style type="text/css">
	.st0{fill-rule:evenodd;clip-rule:evenodd;fill:#D8D8D8;}
</style>
<path class="st0" d="M18.7,2.2c-0.2-1.1-1.1-1.9-2.1-2C14.3,0,11.9,0,9.5,0C7.1,0,4.7,0,2.4,0.3c-1,0.1-1.8,0.9-2.1,2
	C0,3.8,0,5.4,0,7c0,1.6,0,3.2,0.3,4.7c0.2,1.1,1.1,1.9,2.1,2C4.7,14,7.1,14,9.5,14c2.4,0,4.8,0,7.1-0.3c1-0.1,1.8-0.9,2.1-2
	C19,10.2,19,8.6,19,7C19,5.4,19,3.8,18.7,2.2z M7,10.1c0-2.2,0-4.4,0-6.6c2,1.1,4,2.2,6,3.3C11.1,7.9,9.1,9,7,10.1z"/>
</svg>
